<svg width="17" height="16" viewBox="0 0 17 16" fill="none" xmlns="http://www.w3.org/2000/svg">
<path d="M5.85876 9.47011L9.85876 5.47011C9.92853 5.40035 10.0114 5.34501 10.1025 5.30725C10.1937 5.26949 10.2914 5.25006 10.39 5.25006C10.4887 5.25006 10.5864 5.26949 10.6775 5.30725C10.7687 5.34501 10.8515 5.40035 10.9213 5.47011C10.991 5.53987 11.0464 5.6227 11.0841 5.71385C11.1219 5.805 11.1413 5.9027 11.1413 6.00136C11.1413 6.10002 11.1219 6.19772 11.0841 6.28887C11.0464 6.38002 10.991 6.46285 10.9213 6.53261L6.92126 10.5326C6.78037 10.6735 6.58927 10.7527 6.39001 10.7527C6.19076 10.7527 5.99966 10.6735 5.85876 10.5326C5.71787 10.3917 5.63871 10.2006 5.63871 10.0014C5.63871 9.8021 5.71787 9.61101 5.85876 9.47011ZM14.0463 2.34511C13.3423 1.64274 12.3885 1.24829 11.3941 1.24829C10.3997 1.24829 9.44584 1.64274 8.74189 2.34511L6.85939 4.22574C6.71849 4.36663 6.63934 4.55773 6.63934 4.75699C6.63934 4.85565 6.65877 4.95334 6.69653 5.0445C6.73428 5.13565 6.78962 5.21847 6.85939 5.28824C6.92915 5.358 7.01198 5.41334 7.10313 5.4511C7.19428 5.48885 7.29198 5.50829 7.39064 5.50829C7.5899 5.50829 7.78099 5.42913 7.92189 5.28824L9.80126 3.40948C10.2233 2.98738 10.7957 2.75021 11.3926 2.75015C11.9895 2.75009 12.562 2.98715 12.9841 3.40917C13.4062 3.8312 13.6434 4.40362 13.6434 5.00051C13.6435 5.59741 13.4064 6.16988 12.9844 6.59199L11.1025 8.47011C11.0327 8.53988 10.9774 8.6227 10.9397 8.71385C10.9019 8.805 10.8825 8.9027 10.8825 9.00136C10.8825 9.10002 10.9019 9.19772 10.9397 9.28887C10.9774 9.38002 11.0327 9.46284 11.1025 9.53261C11.1723 9.60238 11.2551 9.65771 11.3463 9.69547C11.4374 9.73323 11.5351 9.75266 11.6338 9.75266C11.7324 9.75266 11.8301 9.73323 11.9213 9.69547C12.0124 9.65771 12.0952 9.60238 12.165 9.53261L14.045 7.65386C14.7477 6.94947 15.1422 5.99502 15.1419 5.00003C15.1415 4.00505 14.7464 3.05087 14.0431 2.34698L14.0463 2.34511ZM8.86001 10.7126L6.98064 12.5926C6.77163 12.8016 6.52351 12.9673 6.25045 13.0804C5.97738 13.1935 5.68472 13.2517 5.38917 13.2516C5.09362 13.2516 4.80097 13.1934 4.52792 13.0802C4.25488 12.9671 4.00679 12.8013 3.79783 12.5923C3.3758 12.1702 3.13874 11.5977 3.1388 11.0008C3.13886 10.4039 3.37603 9.83151 3.79814 9.40948L5.67689 7.53011C5.74665 7.46035 5.80199 7.37752 5.83975 7.28637C5.87751 7.19522 5.89694 7.09752 5.89694 6.99886C5.89694 6.9002 5.87751 6.8025 5.83975 6.71135C5.80199 6.6202 5.74665 6.53737 5.67689 6.46761C5.60712 6.39785 5.5243 6.3425 5.43315 6.30475C5.342 6.26699 5.2443 6.24756 5.14564 6.24756C5.04698 6.24756 4.94928 6.26699 4.85813 6.30475C4.76698 6.3425 4.68415 6.39785 4.61439 6.46761L2.73689 8.34886C2.3886 8.69719 2.11233 9.11071 1.92385 9.56581C1.73537 10.0209 1.63838 10.5087 1.63841 11.0013C1.63847 11.9961 2.03371 12.9501 2.7372 13.6535C3.44069 14.357 4.39479 14.7521 5.38961 14.752C6.38443 14.752 7.33849 14.3567 8.04189 13.6532L9.92064 11.7739C10.0615 11.633 10.1407 11.4419 10.1407 11.2426C10.1407 11.0434 10.0615 10.8523 9.92064 10.7114C9.77974 10.5705 9.58865 10.4913 9.38939 10.4913C9.19013 10.4913 8.99904 10.5705 8.85814 10.7114L8.86001 10.7126Z" fill="#0303AD"/>
</svg>
